<svg xmlns="http://www.w3.org/2000/svg" width="23" height="23" viewBox="0 0 23 23"><g><g><path fill="#fff" d="M18.774 14.617a4.2 4.2 0 0 0-3.3 1.605l-7.181-3.639c.094-.347.16-.705.16-1.083 0-.413-.077-.802-.19-1.175l7.144-3.623a4.21 4.21 0 0 0 3.367 1.677C21.114 8.38 23 6.51 23 4.193c0-2.313-1.887-4.19-4.227-4.19-2.33 0-4.223 1.877-4.223 4.19 0 .378.067.737.161 1.083l-7.176 3.64A4.215 4.215 0 0 0 4.23 7.31C1.897 7.31.004 9.186.004 11.5c0 2.315 1.893 4.19 4.227 4.19a4.217 4.217 0 0 0 3.366-1.686l7.145 3.623a4.067 4.067 0 0 0-.195 1.18c0 2.315 1.896 4.19 4.227 4.19 2.334 0 4.227-1.875 4.227-4.19 0-2.314-1.893-4.19-4.227-4.19z"/></g></g></svg>